# xmcd
#
# Track frame offsets:
#	150
#	12990
#	27365
#	37242
#	49217
#	53385
#	63607
#	72680
#	84027
#	97280
#	102795
#	106577
#	114000
#	130310
#	137970
#	148797
#	159297
#	167477
#	175455
#	187410
#	190167
#
# Disc length: 2692 seconds
#
# Revision: 2
# Processed by: cddbd v1.5.2PL0 Copyright (c) Steve Scherf et al.
# Submitted via: audiograbber 1.83.01
#
DISCID=2b0a8215
DTITLE=Nitty Gritty Dirt Band - Uncle Charlie and His Dog Teddy
DYEAR=1900
DGENRE=
TTITLE0=Some of Shelly's Blues
TTITLE1=Prodigal Son's Return
TTITLE2=The Cure
TTITLE3=Travelin' Mood
TTITLE4=Chicken Reel
TTITLE5=Yukon Railroad
TTITLE6=Livin' Without You
TTITLE7=Clinch Mountain Backstep
TTITLE8=Rave On
TTITLE9=Billy In The Low Ground
TTITLE10=Jesse James
TTITLE11=Uncle Charlie Interview
TTITLE12=Mr. Bojangles
TTITLE13=Opus 36
TTITLE14=Santa Rosa
TTITLE15=Propinquity
TTITLE16=Uncle Charlie
TTITLE17=Randy Lynn Rag
TTITLE18=House At Pooh Corner
TTITLE19=Swannee River
TTITLE20=Uncle Charlie Interview #2/Spanish Fandango
EXTD=
EXTT0=
EXTT1=
EXTT2=
EXTT3=
EXTT4=
EXTT5=
EXTT6=
EXTT7=
EXTT8=
EXTT9=
EXTT10=
EXTT11=
EXTT12=
EXTT13=
EXTT14=
EXTT15=
EXTT16=
EXTT17=
EXTT18=
EXTT19=
EXTT20=
PLAYORDER=
